<svg width="379" height="48" viewBox="0 0 379 48" fill="none" xmlns="http://www.w3.org/2000/svg">
<path d="M1.70642 14.2033H11.2428V34.4813H1.70642V14.2033Z" fill="#DD8F0F"/>
<path d="M30.3154 19.2728H68.4608V29.4118H30.3154V19.2728Z" fill="#FCA311"/>
<path d="M11.2428 5.75412H20.7791V42.9305H11.2428V5.75412Z" fill="#DD8F0F"/>
<path d="M77.9971 5.75412H87.5335V42.9305H77.9971V5.75412Z" fill="#DD8F0F"/>
<path d="M20.7791 2.37445H30.3155V46.3102H20.7791V2.37445Z" fill="#DD8F0F"/>
<path d="M68.4608 2.37445H77.9972V46.3102H68.4608V2.37445Z" fill="#DD8F0F"/>
<path d="M87.5334 14.2033H97.0698V34.4813H87.5334V14.2033Z" fill="#DD8F0F"/>
<path d="M97.0698 12.5135H89.1228V5.75414C89.1228 5.30596 88.9554 4.87615 88.6573 4.55924C88.3592 4.24234 87.955 4.0643 87.5334 4.0643H79.5865V2.37447C79.5865 1.92629 79.419 1.49648 79.121 1.17957C78.8229 0.862666 78.4186 0.684631 77.9971 0.684631H68.4608C68.0392 0.684631 67.635 0.862666 67.3369 1.17957C67.0388 1.49648 66.8714 1.92629 66.8714 2.37447V17.583H31.9048V2.37447C31.9048 1.92629 31.7373 1.49648 31.4393 1.17957C31.1412 0.862666 30.7369 0.684631 30.3154 0.684631H20.7791C20.3575 0.684631 19.9533 0.862666 19.6552 1.17957C19.3571 1.49648 19.1897 1.92629 19.1897 2.37447V4.0643H11.2427C10.8212 4.0643 10.4169 4.24234 10.1189 4.55924C9.8208 4.87615 9.65334 5.30596 9.65334 5.75414V12.5135H1.70639C1.28486 12.5135 0.880594 12.6915 0.582526 13.0084C0.284457 13.3253 0.117004 13.7551 0.117004 14.2033V34.4813C0.117004 34.9295 0.284457 35.3593 0.582526 35.6762C0.880594 35.9931 1.28486 36.1712 1.70639 36.1712H9.65334V42.9305C9.65334 43.3787 9.8208 43.8085 10.1189 44.1254C10.4169 44.4423 10.8212 44.6203 11.2427 44.6203H19.1897V46.3102C19.1897 46.7583 19.3571 47.1882 19.6552 47.5051C19.9533 47.822 20.3575 48 20.7791 48H30.3154C30.7369 48 31.1412 47.822 31.4393 47.5051C31.7373 47.1882 31.9048 46.7583 31.9048 46.3102V31.1017H66.8714V46.3102C66.8714 46.7583 67.0388 47.1882 67.3369 47.5051C67.635 47.822 68.0392 48 68.4608 48H77.9971C78.4186 48 78.8229 47.822 79.121 47.5051C79.419 47.1882 79.5865 46.7583 79.5865 46.3102V44.6203H87.5334C87.955 44.6203 88.3592 44.4423 88.6573 44.1254C88.9554 43.8085 89.1228 43.3787 89.1228 42.9305V36.1712H97.0698C97.4913 36.1712 97.8956 35.9931 98.1936 35.6762C98.4917 35.3593 98.6592 34.9295 98.6592 34.4813V14.2033C98.6592 13.7551 98.4917 13.3253 98.1936 13.0084C97.8956 12.6915 97.4913 12.5135 97.0698 12.5135ZM9.65334 32.7915H3.29578V15.8931H9.65334V32.7915ZM19.1897 41.2407H12.8321V7.44397H19.1897V41.2407ZM28.726 44.6203H22.3685V4.0643H28.726V44.6203ZM66.8714 27.722H31.9048V20.9626H66.8714V27.722ZM76.4077 44.6203H70.0501V4.0643H76.4077V44.6203ZM85.944 41.2407H79.5865V7.44397H85.944V41.2407ZM95.4804 32.7915H89.1228V15.8931H95.4804V32.7915Z" fill="#FCA311"/>
<path d="M167.311 4.1792L158.369 36.4821L149.061 8.80258H144.864L135.556 36.4821L126.553 4.1792H120.956L132.514 42.9305H137.989L146.932 16.2852L155.875 42.9305H161.35L172.969 4.1792H167.311Z" fill="#FCA311"/>
<path d="M191.28 3.51003C179.296 3.51003 171.144 12.0876 171.144 23.5244C171.144 34.9612 179.296 43.5388 191.28 43.5388C203.264 43.5388 211.477 34.9612 211.477 23.5244C211.477 12.0876 203.264 3.51003 191.28 3.51003ZM191.28 39.2804C182.155 39.2804 176.376 32.5279 176.376 23.5244C176.376 14.4602 182.155 7.76841 191.28 7.76841C200.344 7.76841 206.245 14.4602 206.245 23.5244C206.245 32.5279 200.344 39.2804 191.28 39.2804Z" fill="#FCA311"/>
<path d="M231.805 27.1136C237.341 26.627 242.391 22.7944 242.391 15.7985C242.391 8.68092 237.037 4.1792 229.615 4.1792H213.312V19.0835H218.361V8.49841H229.007C233.813 8.49841 237.159 11.4793 237.159 15.9202C237.159 20.3002 233.813 23.4028 229.007 23.4028H213.312V43.0522H218.361V27.6611H226.513L236.794 43.0522H242.756L231.805 27.1136Z" fill="#FCA311"/>
<path d="M249.657 42.9305V34.1095H244.608V42.9305H249.657ZM257.018 22.5511L273.93 4.1792H267.603L249.657 24.1328V4.1792H244.608V29.912H249.657L253.733 25.4711L269.124 42.8697H275.451L257.018 22.5511Z" fill="#FCA311"/>
<path d="M290.1 3.51003C278.115 3.51003 269.964 12.0876 269.964 23.5244C269.964 34.9612 278.115 43.5388 290.1 43.5388C302.084 43.5388 310.297 34.9612 310.297 23.5244C310.297 12.0876 302.084 3.51003 290.1 3.51003ZM290.1 39.2804C280.975 39.2804 275.195 32.5279 275.195 23.5244C275.195 14.4602 280.975 7.76841 290.1 7.76841C299.164 7.76841 305.065 14.4602 305.065 23.5244C305.065 32.5279 299.164 39.2804 290.1 39.2804Z" fill="#FCA311"/>
<path d="M317.242 21.3952V4.11836H312.132V21.3952H317.242ZM345.286 21.3952V4.11836H340.176V21.3952H345.286ZM340.176 27.722C340.176 34.7787 336.161 39.2804 328.678 39.2804C321.196 39.2804 317.242 34.7787 317.242 27.722V25.5928H312.132V27.8436C312.132 37.3946 317.728 43.5997 328.678 43.5997C339.689 43.5997 345.286 37.4554 345.286 27.8436V25.6536H340.176V27.7828V27.722Z" fill="#FCA311"/>
<path d="M365.605 42.9305V12.696H360.555V42.9305H365.605ZM378.501 8.49841V4.1792H347.719V8.49841H378.501Z" fill="#FCA311"/>
</svg>
